<?xml version="1.0" encoding="UTF-8"?>
<svg version="1.1" xmlns="http://www.w3.org/2000/svg" width="100" height="100">
<path d="M0 0 C1.06734375 -0.00257812 2.1346875 -0.00515625 3.234375 -0.0078125 C4.35328125 -0.00007812 5.4721875 0.00765625 6.625 0.015625 C7.74390625 0.00789062 8.8628125 0.00015625 10.015625 -0.0078125 C11.08296875 -0.00523438 12.1503125 -0.00265625 13.25 0 C14.72339844 0.00338379 14.72339844 0.00338379 16.2265625 0.00683594 C18.625 0.265625 18.625 0.265625 20.625 2.265625 C20.88378906 4.11328125 20.88378906 4.11328125 20.890625 6.328125 C20.89449219 7.52308594 20.89449219 7.52308594 20.8984375 8.7421875 C20.89070313 9.57492188 20.88296875 10.40765625 20.875 11.265625 C20.88660156 12.51472656 20.88660156 12.51472656 20.8984375 13.7890625 C20.89585938 14.58570313 20.89328125 15.38234375 20.890625 16.203125 C20.88836914 16.93402344 20.88611328 17.66492188 20.88378906 18.41796875 C20.625 20.265625 20.625 20.265625 18.625 22.265625 C16.2421875 22.4609375 16.2421875 22.4609375 13.5 22.390625 C12.58992188 22.37257813 11.67984375 22.35453125 10.7421875 22.3359375 C10.04351562 22.31273438 9.34484375 22.28953125 8.625 22.265625 C8.625 24.905625 8.625 27.545625 8.625 30.265625 C9.53789795 30.23944092 10.4507959 30.21325684 11.39135742 30.1862793 C14.79272344 30.10083958 18.19294258 30.03827501 21.5949707 29.9909668 C23.06455525 29.96588856 24.53401587 29.93181644 26.00317383 29.88842773 C28.12091681 29.82747001 30.23700576 29.79935184 32.35546875 29.77734375 C33.62801514 29.75115967 34.90056152 29.72497559 36.21166992 29.69799805 C40.53958196 30.41771734 41.98463864 31.82545521 44.625 35.265625 C44.99271245 38.1043651 45.11130804 40.28382651 44.9375 43.078125 C44.91494141 43.77099609 44.89238281 44.46386719 44.86914062 45.17773438 C44.81062661 46.87464073 44.7209548 48.57042361 44.625 50.265625 C45.32367188 50.24242187 46.02234375 50.21921875 46.7421875 50.1953125 C47.65226562 50.17726562 48.56234375 50.15921875 49.5 50.140625 C50.85738281 50.10582031 50.85738281 50.10582031 52.2421875 50.0703125 C54.625 50.265625 54.625 50.265625 56.625 52.265625 C56.88378906 54.11328125 56.88378906 54.11328125 56.890625 56.328125 C56.89449219 57.52308594 56.89449219 57.52308594 56.8984375 58.7421875 C56.89070313 59.57492188 56.88296875 60.40765625 56.875 61.265625 C56.88660156 62.51472656 56.88660156 62.51472656 56.8984375 63.7890625 C56.89585938 64.58570312 56.89328125 65.38234375 56.890625 66.203125 C56.88836914 66.93402344 56.88611328 67.66492188 56.88378906 68.41796875 C56.625 70.265625 56.625 70.265625 54.625 72.265625 C52.2265625 72.52441406 52.2265625 72.52441406 49.25 72.53125 C48.18265625 72.53382812 47.1153125 72.53640625 46.015625 72.5390625 C44.89671875 72.53132813 43.7778125 72.52359375 42.625 72.515625 C41.50609375 72.52335937 40.3871875 72.53109375 39.234375 72.5390625 C38.16703125 72.53648438 37.0996875 72.53390625 36 72.53125 C35.01773438 72.52899414 34.03546875 72.52673828 33.0234375 72.52441406 C30.625 72.265625 30.625 72.265625 28.625 70.265625 C28.36621094 68.41796875 28.36621094 68.41796875 28.359375 66.203125 C28.35679688 65.40648438 28.35421875 64.60984375 28.3515625 63.7890625 C28.35929687 62.95632812 28.36703125 62.12359375 28.375 61.265625 C28.36339844 60.01652344 28.36339844 60.01652344 28.3515625 58.7421875 C28.35414062 57.94554687 28.35671875 57.14890625 28.359375 56.328125 C28.36163086 55.59722656 28.36388672 54.86632812 28.36621094 54.11328125 C28.625 52.265625 28.625 52.265625 30.625 50.265625 C33.0078125 50.0703125 33.0078125 50.0703125 35.75 50.140625 C36.66007812 50.15867188 37.57015625 50.17671875 38.5078125 50.1953125 C39.20648438 50.21851563 39.90515625 50.24171875 40.625 50.265625 C40.39726744 48.13812344 40.14209182 46.01354444 39.875 43.890625 C39.73578125 42.70726562 39.5965625 41.52390625 39.453125 40.3046875 C38.96656842 37.23800875 38.96656842 37.23800875 36.953125 36.1015625 C34.07193481 35.06704119 31.6071926 34.94157184 28.546875 34.8515625 C27.38671875 34.81289063 26.2265625 34.77421875 25.03125 34.734375 C23.8246875 34.7034375 22.618125 34.6725 21.375 34.640625 C20.15296875 34.60195313 18.9309375 34.56328125 17.671875 34.5234375 C14.65649774 34.42920696 11.6407696 34.34632869 8.625 34.265625 C8.625 39.545625 8.625 44.825625 8.625 50.265625 C11.1640625 50.20052083 13.703125 50.13541667 16.2421875 50.0703125 C18.625 50.265625 18.625 50.265625 20.625 52.265625 C20.88378906 54.11328125 20.88378906 54.11328125 20.890625 56.328125 C20.89449219 57.52308594 20.89449219 57.52308594 20.8984375 58.7421875 C20.89070313 59.57492188 20.88296875 60.40765625 20.875 61.265625 C20.88660156 62.51472656 20.88660156 62.51472656 20.8984375 63.7890625 C20.89585938 64.58570312 20.89328125 65.38234375 20.890625 66.203125 C20.88836914 66.93402344 20.88611328 67.66492188 20.88378906 68.41796875 C20.625 70.265625 20.625 70.265625 18.625 72.265625 C16.2265625 72.52441406 16.2265625 72.52441406 13.25 72.53125 C12.18265625 72.53382812 11.1153125 72.53640625 10.015625 72.5390625 C8.89671875 72.53132813 7.7778125 72.52359375 6.625 72.515625 C5.50609375 72.52335937 4.3871875 72.53109375 3.234375 72.5390625 C2.16703125 72.53648438 1.0996875 72.53390625 0 72.53125 C-1.47339844 72.52786621 -1.47339844 72.52786621 -2.9765625 72.52441406 C-5.375 72.265625 -5.375 72.265625 -7.375 70.265625 C-7.63378906 68.41796875 -7.63378906 68.41796875 -7.640625 66.203125 C-7.64320312 65.40648438 -7.64578125 64.60984375 -7.6484375 63.7890625 C-7.64070313 62.95632812 -7.63296875 62.12359375 -7.625 61.265625 C-7.63660156 60.01652344 -7.63660156 60.01652344 -7.6484375 58.7421875 C-7.64585938 57.94554687 -7.64328125 57.14890625 -7.640625 56.328125 C-7.63836914 55.59722656 -7.63611328 54.86632812 -7.63378906 54.11328125 C-7.375 52.265625 -7.375 52.265625 -5.375 50.265625 C-2.9921875 50.0703125 -2.9921875 50.0703125 -0.25 50.140625 C2.163125 50.2025 2.163125 50.2025 4.625 50.265625 C4.625 44.985625 4.625 39.705625 4.625 34.265625 C0.37442349 34.37937282 -3.87507273 34.50613363 -8.125 34.640625 C-9.93484375 34.68703125 -9.93484375 34.68703125 -11.78125 34.734375 C-12.94140625 34.77304687 -14.1015625 34.81171875 -15.296875 34.8515625 C-16.36518555 34.8829834 -17.43349609 34.9144043 -18.53417969 34.94677734 C-21.34759435 35.26254905 -23.05904391 35.65311351 -25.375 37.265625 C-26.29999783 40.3639128 -26.29999783 40.3639128 -26.625 43.890625 C-26.77453125 45.07914063 -26.9240625 46.26765625 -27.078125 47.4921875 C-27.22507812 48.86503906 -27.22507812 48.86503906 -27.375 50.265625 C-26.67632813 50.24242187 -25.97765625 50.21921875 -25.2578125 50.1953125 C-24.34773438 50.17726562 -23.43765625 50.15921875 -22.5 50.140625 C-21.14261719 50.10582031 -21.14261719 50.10582031 -19.7578125 50.0703125 C-17.375 50.265625 -17.375 50.265625 -15.375 52.265625 C-15.11621094 54.11328125 -15.11621094 54.11328125 -15.109375 56.328125 C-15.10550781 57.52308594 -15.10550781 57.52308594 -15.1015625 58.7421875 C-15.10929687 59.57492188 -15.11703125 60.40765625 -15.125 61.265625 C-15.11726563 62.09835938 -15.10953125 62.93109375 -15.1015625 63.7890625 C-15.10414062 64.58570312 -15.10671875 65.38234375 -15.109375 66.203125 C-15.11163086 66.93402344 -15.11388672 67.66492188 -15.11621094 68.41796875 C-15.375 70.265625 -15.375 70.265625 -17.375 72.265625 C-19.7734375 72.52441406 -19.7734375 72.52441406 -22.75 72.53125 C-23.81734375 72.53382812 -24.8846875 72.53640625 -25.984375 72.5390625 C-27.66273437 72.52746094 -27.66273437 72.52746094 -29.375 72.515625 C-30.49390625 72.52335937 -31.6128125 72.53109375 -32.765625 72.5390625 C-33.83296875 72.53648438 -34.9003125 72.53390625 -36 72.53125 C-36.98226562 72.52899414 -37.96453125 72.52673828 -38.9765625 72.52441406 C-41.375 72.265625 -41.375 72.265625 -43.375 70.265625 C-43.63378906 68.41796875 -43.63378906 68.41796875 -43.640625 66.203125 C-43.64320312 65.40648438 -43.64578125 64.60984375 -43.6484375 63.7890625 C-43.64070313 62.95632812 -43.63296875 62.12359375 -43.625 61.265625 C-43.63273437 60.43289062 -43.64046875 59.60015625 -43.6484375 58.7421875 C-43.64585938 57.94554687 -43.64328125 57.14890625 -43.640625 56.328125 C-43.63836914 55.59722656 -43.63611328 54.86632812 -43.63378906 54.11328125 C-43.375 52.265625 -43.375 52.265625 -41.375 50.265625 C-38.9921875 50.0703125 -38.9921875 50.0703125 -36.25 50.140625 C-35.33992188 50.15867188 -34.42984375 50.17671875 -33.4921875 50.1953125 C-32.79351562 50.21851563 -32.09484375 50.24171875 -31.375 50.265625 C-31.46201172 48.72841797 -31.46201172 48.72841797 -31.55078125 47.16015625 C-31.59769957 45.79952489 -31.64319752 44.43884404 -31.6875 43.078125 C-31.72939453 42.40458984 -31.77128906 41.73105469 -31.81445312 41.03710938 C-31.90492959 37.32757448 -31.57559266 35.52698044 -29.29882812 32.56054688 C-25.6210287 29.67383056 -23.73499853 29.68208594 -19.10546875 29.77734375 C-18.08396477 29.78795586 -18.08396477 29.78795586 -17.04182434 29.79878235 C-14.88090005 29.82662431 -12.72263178 29.88932973 -10.5625 29.953125 C-9.09183448 29.97822168 -7.62112807 30.00103247 -6.15039062 30.02148438 C-2.55774043 30.07641312 1.03337028 30.16260853 4.625 30.265625 C4.625 27.625625 4.625 24.985625 4.625 22.265625 C3.57699219 22.30042969 3.57699219 22.30042969 2.5078125 22.3359375 C1.59773438 22.35398437 0.68765625 22.37203125 -0.25 22.390625 C-1.60738281 22.42542969 -1.60738281 22.42542969 -2.9921875 22.4609375 C-5.375 22.265625 -5.375 22.265625 -7.375 20.265625 C-7.63378906 18.41796875 -7.63378906 18.41796875 -7.640625 16.203125 C-7.64449219 15.00816406 -7.64449219 15.00816406 -7.6484375 13.7890625 C-7.64070313 12.95632812 -7.63296875 12.12359375 -7.625 11.265625 C-7.63660156 10.01652344 -7.63660156 10.01652344 -7.6484375 8.7421875 C-7.64585938 7.94554687 -7.64328125 7.14890625 -7.640625 6.328125 C-7.63836914 5.59722656 -7.63611328 4.86632812 -7.63378906 4.11328125 C-7.00227745 -0.39547338 -3.74351822 0.00859732 0 0 Z M-3.375 6.265625 C-3.69399515 8.63517886 -3.69399515 8.63517886 -3.625 11.265625 C-3.63015625 12.1525 -3.6353125 13.039375 -3.640625 13.953125 C-3.59552862 16.45962739 -3.59552862 16.45962739 -1.375 18.265625 C1.33422801 18.46414602 3.91803179 18.54401977 6.625 18.515625 C7.36234375 18.52335937 8.0996875 18.53109375 8.859375 18.5390625 C13.20921903 18.67571365 13.20921903 18.67571365 16.625 16.265625 C16.94399515 13.89607114 16.94399515 13.89607114 16.875 11.265625 C16.88015625 10.37875 16.8853125 9.491875 16.890625 8.578125 C16.84552862 6.07162261 16.84552862 6.07162261 14.625 4.265625 C11.91577199 4.06710398 9.33196821 3.98723023 6.625 4.015625 C5.88765625 4.00789063 5.1503125 4.00015625 4.390625 3.9921875 C0.04078097 3.85553635 0.04078097 3.85553635 -3.375 6.265625 Z M-39.375 56.265625 C-39.69399515 58.63517886 -39.69399515 58.63517886 -39.625 61.265625 C-39.63015625 62.1525 -39.6353125 63.039375 -39.640625 63.953125 C-39.59552862 66.45962739 -39.59552862 66.45962739 -37.375 68.265625 C-34.66577199 68.46414602 -32.08196821 68.54401977 -29.375 68.515625 C-28.63765625 68.52335937 -27.9003125 68.53109375 -27.140625 68.5390625 C-22.79078097 68.67571365 -22.79078097 68.67571365 -19.375 66.265625 C-19.05600485 63.89607114 -19.05600485 63.89607114 -19.125 61.265625 C-19.11984375 60.37875 -19.1146875 59.491875 -19.109375 58.578125 C-19.15447138 56.07162261 -19.15447138 56.07162261 -21.375 54.265625 C-24.08422801 54.06710398 -26.66803179 53.98723023 -29.375 54.015625 C-30.11234375 54.00789063 -30.8496875 54.00015625 -31.609375 53.9921875 C-35.95921903 53.85553635 -35.95921903 53.85553635 -39.375 56.265625 Z M-3.375 56.265625 C-3.69399515 58.63517886 -3.69399515 58.63517886 -3.625 61.265625 C-3.63015625 62.1525 -3.6353125 63.039375 -3.640625 63.953125 C-3.59552862 66.45962739 -3.59552862 66.45962739 -1.375 68.265625 C1.33422801 68.46414602 3.91803179 68.54401977 6.625 68.515625 C7.36234375 68.52335937 8.0996875 68.53109375 8.859375 68.5390625 C13.20921903 68.67571365 13.20921903 68.67571365 16.625 66.265625 C16.94399515 63.89607114 16.94399515 63.89607114 16.875 61.265625 C16.88015625 60.37875 16.8853125 59.491875 16.890625 58.578125 C16.84552862 56.07162261 16.84552862 56.07162261 14.625 54.265625 C11.91577199 54.06710398 9.33196821 53.98723023 6.625 54.015625 C5.88765625 54.00789063 5.1503125 54.00015625 4.390625 53.9921875 C0.04078097 53.85553635 0.04078097 53.85553635 -3.375 56.265625 Z M32.625 56.265625 C32.30600485 58.63517886 32.30600485 58.63517886 32.375 61.265625 C32.36984375 62.1525 32.3646875 63.039375 32.359375 63.953125 C32.40447138 66.45962739 32.40447138 66.45962739 34.625 68.265625 C37.33422801 68.46414602 39.91803179 68.54401977 42.625 68.515625 C43.36234375 68.52335937 44.0996875 68.53109375 44.859375 68.5390625 C49.20921903 68.67571365 49.20921903 68.67571365 52.625 66.265625 C52.94399515 63.89607114 52.94399515 63.89607114 52.875 61.265625 C52.88015625 60.37875 52.8853125 59.491875 52.890625 58.578125 C52.84552862 56.07162261 52.84552862 56.07162261 50.625 54.265625 C47.91577199 54.06710398 45.33196821 53.98723023 42.625 54.015625 C41.88765625 54.00789063 41.1503125 54.00015625 40.390625 53.9921875 C36.04078097 53.85553635 36.04078097 53.85553635 32.625 56.265625 Z " fill="#CFE92F" transform="translate(43.375,13.734375)"/>
</svg>
