<?xml version="1.0" encoding="UTF-8"?>
<svg version="1.1" xmlns="http://www.w3.org/2000/svg" width="100" height="100">
<path d="M0 0 C1.06734375 -0.00257812 2.1346875 -0.00515625 3.234375 -0.0078125 C4.91273437 0.00378906 4.91273437 0.00378906 6.625 0.015625 C7.74390625 0.00789063 8.8628125 0.00015625 10.015625 -0.0078125 C11.08296875 -0.00523438 12.1503125 -0.00265625 13.25 0 C14.23226562 0.00225586 15.21453125 0.00451172 16.2265625 0.00683594 C18.625 0.265625 18.625 0.265625 20.625 2.265625 C20.88378906 4.11328125 20.88378906 4.11328125 20.890625 6.328125 C20.89449219 7.52308594 20.89449219 7.52308594 20.8984375 8.7421875 C20.89070313 9.57492188 20.88296875 10.40765625 20.875 11.265625 C20.88273437 12.09835938 20.89046875 12.93109375 20.8984375 13.7890625 C20.89585938 14.58570312 20.89328125 15.38234375 20.890625 16.203125 C20.88836914 16.93402344 20.88611328 17.66492188 20.88378906 18.41796875 C20.625 20.265625 20.625 20.265625 18.625 22.265625 C16.2265625 22.52441406 16.2265625 22.52441406 13.25 22.53125 C12.18265625 22.53382812 11.1153125 22.53640625 10.015625 22.5390625 C8.33726563 22.52746094 8.33726563 22.52746094 6.625 22.515625 C5.50609375 22.52335937 4.3871875 22.53109375 3.234375 22.5390625 C2.16703125 22.53648438 1.0996875 22.53390625 0 22.53125 C-0.98226562 22.52899414 -1.96453125 22.52673828 -2.9765625 22.52441406 C-5.375 22.265625 -5.375 22.265625 -7.375 20.265625 C-7.63378906 18.41796875 -7.63378906 18.41796875 -7.640625 16.203125 C-7.64320312 15.40648438 -7.64578125 14.60984375 -7.6484375 13.7890625 C-7.64070313 12.95632812 -7.63296875 12.12359375 -7.625 11.265625 C-7.63273437 10.43289062 -7.64046875 9.60015625 -7.6484375 8.7421875 C-7.64585938 7.94554688 -7.64328125 7.14890625 -7.640625 6.328125 C-7.63836914 5.59722656 -7.63611328 4.86632812 -7.63378906 4.11328125 C-7.00227745 -0.39547338 -3.74351822 0.00859732 0 0 Z " fill="#2F52E8" transform="translate(79.375,63.734375)"/>
<path d="M0 0 C1.06734375 -0.00257812 2.1346875 -0.00515625 3.234375 -0.0078125 C4.91273437 0.00378906 4.91273437 0.00378906 6.625 0.015625 C7.74390625 0.00789063 8.8628125 0.00015625 10.015625 -0.0078125 C11.08296875 -0.00523438 12.1503125 -0.00265625 13.25 0 C14.23226562 0.00225586 15.21453125 0.00451172 16.2265625 0.00683594 C18.625 0.265625 18.625 0.265625 20.625 2.265625 C20.88378906 4.11328125 20.88378906 4.11328125 20.890625 6.328125 C20.89449219 7.52308594 20.89449219 7.52308594 20.8984375 8.7421875 C20.89070313 9.57492188 20.88296875 10.40765625 20.875 11.265625 C20.88273437 12.09835938 20.89046875 12.93109375 20.8984375 13.7890625 C20.89585938 14.58570312 20.89328125 15.38234375 20.890625 16.203125 C20.88836914 16.93402344 20.88611328 17.66492188 20.88378906 18.41796875 C20.625 20.265625 20.625 20.265625 18.625 22.265625 C16.2265625 22.52441406 16.2265625 22.52441406 13.25 22.53125 C12.18265625 22.53382812 11.1153125 22.53640625 10.015625 22.5390625 C8.33726563 22.52746094 8.33726563 22.52746094 6.625 22.515625 C5.50609375 22.52335937 4.3871875 22.53109375 3.234375 22.5390625 C2.16703125 22.53648438 1.0996875 22.53390625 0 22.53125 C-0.98226562 22.52899414 -1.96453125 22.52673828 -2.9765625 22.52441406 C-5.375 22.265625 -5.375 22.265625 -7.375 20.265625 C-7.63378906 18.41796875 -7.63378906 18.41796875 -7.640625 16.203125 C-7.64320312 15.40648438 -7.64578125 14.60984375 -7.6484375 13.7890625 C-7.64070313 12.95632812 -7.63296875 12.12359375 -7.625 11.265625 C-7.63273437 10.43289062 -7.64046875 9.60015625 -7.6484375 8.7421875 C-7.64585938 7.94554688 -7.64328125 7.14890625 -7.640625 6.328125 C-7.63836914 5.59722656 -7.63611328 4.86632812 -7.63378906 4.11328125 C-7.00227745 -0.39547338 -3.74351822 0.00859732 0 0 Z " fill="#2F52E8" transform="translate(43.375,63.734375)"/>
<path d="M0 0 C1.06734375 -0.00257812 2.1346875 -0.00515625 3.234375 -0.0078125 C4.91273437 0.00378906 4.91273437 0.00378906 6.625 0.015625 C7.74390625 0.00789063 8.8628125 0.00015625 10.015625 -0.0078125 C11.08296875 -0.00523438 12.1503125 -0.00265625 13.25 0 C14.23226563 0.00225586 15.21453125 0.00451172 16.2265625 0.00683594 C18.625 0.265625 18.625 0.265625 20.625 2.265625 C20.88378906 4.11328125 20.88378906 4.11328125 20.890625 6.328125 C20.89449219 7.52308594 20.89449219 7.52308594 20.8984375 8.7421875 C20.89070313 9.57492188 20.88296875 10.40765625 20.875 11.265625 C20.88273437 12.09835938 20.89046875 12.93109375 20.8984375 13.7890625 C20.89585938 14.58570312 20.89328125 15.38234375 20.890625 16.203125 C20.88836914 16.93402344 20.88611328 17.66492188 20.88378906 18.41796875 C20.625 20.265625 20.625 20.265625 18.625 22.265625 C16.2265625 22.52441406 16.2265625 22.52441406 13.25 22.53125 C12.18265625 22.53382812 11.1153125 22.53640625 10.015625 22.5390625 C8.33726563 22.52746094 8.33726563 22.52746094 6.625 22.515625 C5.50609375 22.52335937 4.3871875 22.53109375 3.234375 22.5390625 C2.16703125 22.53648438 1.0996875 22.53390625 0 22.53125 C-0.98226563 22.52899414 -1.96453125 22.52673828 -2.9765625 22.52441406 C-5.375 22.265625 -5.375 22.265625 -7.375 20.265625 C-7.63378906 18.41796875 -7.63378906 18.41796875 -7.640625 16.203125 C-7.64320313 15.40648438 -7.64578125 14.60984375 -7.6484375 13.7890625 C-7.64070312 12.95632812 -7.63296875 12.12359375 -7.625 11.265625 C-7.63273438 10.43289062 -7.64046875 9.60015625 -7.6484375 8.7421875 C-7.64585937 7.94554688 -7.64328125 7.14890625 -7.640625 6.328125 C-7.63836914 5.59722656 -7.63611328 4.86632812 -7.63378906 4.11328125 C-7.00227745 -0.39547338 -3.74351822 0.00859732 0 0 Z " fill="#2F52E8" transform="translate(7.375,63.734375)"/>
<path d="M0 0 C1.06734375 -0.00257812 2.1346875 -0.00515625 3.234375 -0.0078125 C4.91273437 0.00378906 4.91273437 0.00378906 6.625 0.015625 C7.74390625 0.00789062 8.8628125 0.00015625 10.015625 -0.0078125 C11.08296875 -0.00523438 12.1503125 -0.00265625 13.25 0 C14.23226562 0.00225586 15.21453125 0.00451172 16.2265625 0.00683594 C18.625 0.265625 18.625 0.265625 20.625 2.265625 C20.88378906 4.11328125 20.88378906 4.11328125 20.890625 6.328125 C20.89449219 7.52308594 20.89449219 7.52308594 20.8984375 8.7421875 C20.89070313 9.57492188 20.88296875 10.40765625 20.875 11.265625 C20.88273437 12.09835938 20.89046875 12.93109375 20.8984375 13.7890625 C20.89585938 14.58570313 20.89328125 15.38234375 20.890625 16.203125 C20.88836914 16.93402344 20.88611328 17.66492188 20.88378906 18.41796875 C20.625 20.265625 20.625 20.265625 18.625 22.265625 C16.2265625 22.52441406 16.2265625 22.52441406 13.25 22.53125 C12.18265625 22.53382812 11.1153125 22.53640625 10.015625 22.5390625 C8.33726563 22.52746094 8.33726563 22.52746094 6.625 22.515625 C5.50609375 22.52335937 4.3871875 22.53109375 3.234375 22.5390625 C2.16703125 22.53648438 1.0996875 22.53390625 0 22.53125 C-0.98226562 22.52899414 -1.96453125 22.52673828 -2.9765625 22.52441406 C-5.375 22.265625 -5.375 22.265625 -7.375 20.265625 C-7.63378906 18.41796875 -7.63378906 18.41796875 -7.640625 16.203125 C-7.64320312 15.40648437 -7.64578125 14.60984375 -7.6484375 13.7890625 C-7.64070313 12.95632812 -7.63296875 12.12359375 -7.625 11.265625 C-7.63273437 10.43289062 -7.64046875 9.60015625 -7.6484375 8.7421875 C-7.64585938 7.94554687 -7.64328125 7.14890625 -7.640625 6.328125 C-7.63836914 5.59722656 -7.63611328 4.86632812 -7.63378906 4.11328125 C-7.00227745 -0.39547338 -3.74351822 0.00859732 0 0 Z " fill="#2F52E8" transform="translate(43.375,13.734375)"/>
<path d="M0 0 C1.32 0 2.64 0 4 0 C4 1.32 4 2.64 4 4 C4.91289795 3.97381592 5.8257959 3.94763184 6.76635742 3.9206543 C10.16772344 3.83521458 13.56794258 3.77265001 16.9699707 3.7253418 C18.43955525 3.70026356 19.90901587 3.66619144 21.37817383 3.62280273 C23.49591681 3.56184501 25.61200576 3.53372684 27.73046875 3.51171875 C29.00301514 3.48553467 30.27556152 3.45935059 31.58666992 3.43237305 C35.8966601 4.14911199 37.34082326 5.60535952 40 9 C40.48828125 11.89453125 40.48828125 11.89453125 40.3125 14.8125 C40.26738281 15.78832031 40.22226563 16.76414062 40.17578125 17.76953125 C40.11777344 18.50558594 40.05976562 19.24164063 40 20 C38.68 20 37.36 20 36 20 C35.90203125 19.37351562 35.8040625 18.74703125 35.703125 18.1015625 C35.55359375 17.28429687 35.4040625 16.46703125 35.25 15.625 C35.04117188 14.40683594 35.04117188 14.40683594 34.828125 13.1640625 C34.20226894 10.90119861 34.20226894 10.90119861 32.328125 9.890625 C29.43990131 8.78573406 27.01244329 8.67683657 23.921875 8.5859375 C22.76171875 8.54726563 21.6015625 8.50859375 20.40625 8.46875 C19.1996875 8.4378125 17.993125 8.406875 16.75 8.375 C15.52796875 8.33632813 14.3059375 8.29765625 13.046875 8.2578125 C10.03149774 8.16358196 7.0157696 8.08070369 4 8 C4 11.96 4 15.92 4 20 C2.68 20 1.36 20 0 20 C0 16.04 0 12.08 0 8 C-4.25057651 8.11374782 -8.50007273 8.24050863 -12.75 8.375 C-14.55984375 8.42140625 -14.55984375 8.42140625 -16.40625 8.46875 C-17.56640625 8.50742187 -18.7265625 8.54609375 -19.921875 8.5859375 C-20.99018555 8.6173584 -22.05849609 8.6487793 -23.15917969 8.68115234 C-25.95839546 8.99533039 -27.66503384 9.45062993 -30 11 C-30.91160093 13.17208588 -30.91160093 13.17208588 -31.25 15.625 C-31.39953125 16.44226563 -31.5490625 17.25953125 -31.703125 18.1015625 C-31.80109375 18.72804688 -31.8990625 19.35453125 -32 20 C-33.32 20 -34.64 20 -36 20 C-36.13609913 18.27305325 -36.23249228 16.54295278 -36.3125 14.8125 C-36.37050781 13.84957031 -36.42851563 12.88664062 -36.48828125 11.89453125 C-35.803341 7.83420544 -34.17908131 6.55473267 -31 4 C-27.58666992 3.43237305 -27.58666992 3.43237305 -23.73046875 3.51171875 C-22.70896477 3.52233086 -22.70896477 3.52233086 -21.66682434 3.53315735 C-19.50590005 3.56099931 -17.34763178 3.62370473 -15.1875 3.6875 C-13.71683448 3.71259668 -12.24612807 3.73540747 -10.77539062 3.75585938 C-7.18274043 3.81078812 -3.59162972 3.89698353 0 4 C0 2.68 0 1.36 0 0 Z " fill="#2F53E8" transform="translate(48,40)"/>
</svg>
